<?xml version="1.0" standalone="no"?><!DOCTYPE svg PUBLIC "-//W3C//DTD SVG 1.1//EN" "http://www.w3.org/Graphics/SVG/1.1/DTD/svg11.dtd"><svg t="1724384933018" class="icon" viewBox="0 0 1551 1024" version="1.1" xmlns="http://www.w3.org/2000/svg" p-id="14959" xmlns:xlink="http://www.w3.org/1999/xlink" width="302.9296875" height="200"><path d="M67.8638351 511.60840182c0 389.71803884 315.94103098 705.65906982 705.65906982 705.65906984s705.65906982-315.94103098 705.65906845-705.65906984-315.94103098-705.65906982-705.65906845-705.65906843S67.8638351 121.890363 67.8638351 511.60840182z m0 0" fill="#e6e6e6" p-id="14960"></path><path d="M132.08585943 511.60840182C132.08585943 865.92600814 419.36193843 1153.20208715 773.67954338 1153.20208715c354.3176063 0 641.59368394-287.27607901 641.59368393-641.59368533 0-354.3176063-287.27607901-641.59368394-641.59368393-641.59368392-354.3176063 0-641.59368394 287.27607901-641.59368395 641.59368392z m0 0" fill="#e6e6e6" p-id="14961"></path><path d="M769.73316934 1221.54548583c198.53760048 0 378.89671401-79.48632934 510.42342012-208.16150713-11.22788896-43.1293538-23.88154213-79.30810804-38.13918076-97.30837529-57.03054983-71.28818691-315.9848893-106.04117852-315.9848893-106.0411785l-156.29935005 42.06003066-155.94290902-41.88181092s-257.52857527 33.86188821-314.55912511 105.15007668c-14.43585837 18.17848698-27.44595257 55.07012487-38.85206288 99.0905805C391.9057785 1142.59381725 571.55200991 1221.54548583 769.73316934 1221.54548583z m0 0" fill="#fcfcfc" p-id="14962"></path><path d="M482.64412799 462.76742662c-3.4460595-36.02698906 15.97718582-68.13800053 43.85894282-72.0539781s53.25728791 22.24274967 57.17326551 58.42637717c3.4460595 36.02698906-15.97718582 68.13800053-43.85894422 72.0539781-28.03839545 3.91597758-53.57056619-22.39938949-57.17326411-58.42637717m182.48453153 214.28226474v186.40050912H880.97731557v-186.40050912H665.12865952zM1006.28858159 521.19380379c-27.88175701-3.13278123-46.6784472-34.77387601-41.82263483-70.95750349 4.69917254-36.02698906 31.01453824-62.96891126 58.73965682-59.83613004 27.88175701 3.13278123 46.6784472 34.77387601 41.82263483 70.95750487-4.85581098 36.18362887-31.01453824 62.81227283-58.73965682 59.83612866" fill="#FFD9AC" p-id="14963"></path><path d="M773.67954338 159.20088353S544.20328637 168.91250687 544.20328637 291.71754819v249.05614214c0 48.24483711 78.00626369 185.77395259 148.02393381 191.56959835 35.24379409 2.81950297 81.13904493 6.57884211 81.13904493 6.57884074s46.2085291-3.91597758 81.13904492-6.57884074c70.0176701-5.95228558 147.24073744-143.32476125 147.24073883-191.56959835V298.13975049c0.62655653-122.17848479-228.0665055-138.93886697-228.06650548-138.93886696" fill="#FEE1B9" p-id="14964"></path><path d="M914.34144009 193.03492473c-64.37866276-28.50831354-140.6618967-33.99068105-140.66189671-33.99068103h-0.31327827c-10.02490161 0.4699167-229.0063389 12.53112633-229.00633891 132.51666468v249.05614211c0 48.24483711 78.00626369 185.77395259 148.0239338 191.56959838 35.24379409 2.81950297 81.13904493 6.57884211 81.13904492 6.57884211s46.2085291-3.91597758 81.13904495-6.57884211c70.0176701-5.95228558 148.02393378-143.32476125 148.02393378-191.56959838V298.13975049c-0.31327826-51.53425818-41.1960783-84.42846599-88.34444356-105.10482576" fill="#FEE1B9" p-id="14965"></path><path d="M633.800843 807.06013132l120.61209349 367.1620109c6.4222023 0.31327826 12.84440459 0.31327826 19.26660689 0.31327826 5.95228558 0 12.06120962-0.15663844 18.0134952-0.31327826l120.6120935-367.1620109-139.25214524 28.50831214-139.25214384-28.50831214z m0 0" fill="#e6e6e6" p-id="14966"></path><path d="M789.65673057 915.61101518l31.64109478-31.64109478-47.77492043-47.93155884-47.30500372 47.93155884 31.64109479 31.64109478-39.31641013 185.61731414 54.98031906 54.98031767 54.98031768-54.98031767-38.84649203-185.61731414z m0 0" fill="#d81e06" p-id="14967"></path><path d="M773.67954338 835.72508329l112.46686143-56.7033488 57.95646185 34.14732087-94.29672916 134.7096111-76.12659412-112.15358317z m0 0" fill="#ffffff" p-id="14968"></path><path d="M773.99282163 835.72508329L661.68259864 778.86509604l-57.95646048 34.14731949 113.87661431 134.70961251 56.39006916-111.99694475z m0 0" fill="#ffffff" p-id="14969"></path><path d="M1013.18070197 439.27156389h-21.92947141l-29.29150851-203.78744642s66.57161059-26.15872724 80.35584859 54.19712272c13.62759955 79.88593188-29.13487005 149.59032371-29.13486867 149.5903237m-490.90688701 0h21.92947141l29.29150851-203.78744642s-66.57161059-26.15872724-80.35584858 54.19712272c-13.62759955 79.88593188 29.13487005 149.59032371 29.13486866 149.5903237" fill="#61402F" p-id="14970"></path><path d="M548.11926397 255.84719758s93.20025456 72.52389481 222.42749816 72.52389619 251.40572839-39.94296663 307.0126026-148.80713015c-3.13278123 0.78319497-99.15254015-16.4471039-219.29471555-108.08096715-151.31335485-115.7562825-434.98673316 55.76351402-310.14538521 184.36420111" fill="#61402F" p-id="14971"></path></svg>